# xmcd
#
# Track frame offsets: 
#        150
#        20490
#        33745
#        57900
#        76747
#        99937
#        119172
#        139110
#        158030
#        170872
#        190150
#        213250
#        233192
#        254680
#        274657
#
# Disc length: 4188 seconds
#
# Revision: 3
# Processed by: cddbd v1.5.2PL0 Copyright (c) Steve Scherf et al.
# Submitted via: ExactAudioCopyFreeDBPlugin 1.0
#
DISCID=d5105a0f
DTITLE=Willie Nelson - Milk Cow Blues
DYEAR=2000
DGENRE=Country
TTITLE0=Milk Cow Blues (with Francine Reed)
TTITLE1=Outskirts Of Town (with Keb Mo)
TTITLE2=Black Night (with Dr. John)
TTITLE3=Funny How Times Slips Away (with Francine Reed)
TTITLE4=Rainy Day Blues (with Jonny Lang)
TTITLE5=Crazy (with Susan Tedeschi)
TTITLE6=The Thrill Is Gone (with B.B. King)
TTITLE7=Wake Me When It's Over
TTITLE8=Kansas City (with Susan Tedeschi)
TTITLE9=Fool's Paradise (with Dr. John)
TTITLE10=Ain't Nobody's Business (with Jonny Lang)
TTITLE11=Night Life (with B.B. King)
TTITLE12=Sittin' On Top Of The World
TTITLE13=Lonely Street
TTITLE14=Texas Flood (with Kenny Wayne Sheppard)
EXTD=YEAR: 2000
EXTT0=
EXTT1=
EXTT2=
EXTT3=
EXTT4=
EXTT5=
EXTT6=
EXTT7=
EXTT8=
EXTT9=
EXTT10=
EXTT11=
EXTT12=
EXTT13=
EXTT14=
PLAYORDER=
